<svg xmlns="http://www.w3.org/2000/svg" viewBox="0 0 64 64" role="img" aria-label="United States flag">
  <defs>
    <clipPath id="circle">
      <circle cx="32" cy="32" r="32"/>
    </clipPath>
  </defs>
  <g clip-path="url(#circle)">
    <rect width="64" height="64" fill="#fff"/>
    <path fill="#b22234" d="M0 0h64v5H0zM0 10h64v5H0zM0 20h64v5H0zM0 30h64v5H0zM0 40h64v5H0zM0 50h64v5H0zM0 60h64v4H0z"/>
    <rect width="28" height="35" fill="#3c3b6e"/>
    <g fill="#fff">
      <circle cx="5" cy="5" r="1.1"/>
      <circle cx="14" cy="5" r="1.1"/>
      <circle cx="23" cy="5" r="1.1"/>
      <circle cx="9.5" cy="11" r="1.1"/>
      <circle cx="18.5" cy="11" r="1.1"/>
      <circle cx="5" cy="17" r="1.1"/>
      <circle cx="14" cy="17" r="1.1"/>
      <circle cx="23" cy="17" r="1.1"/>
      <circle cx="9.5" cy="23" r="1.1"/>
      <circle cx="18.5" cy="23" r="1.1"/>
      <circle cx="5" cy="29" r="1.1"/>
      <circle cx="14" cy="29" r="1.1"/>
      <circle cx="23" cy="29" r="1.1"/>
    </g>
  </g>
</svg>
