<svg xmlns="http://www.w3.org/2000/svg" viewBox="0 0 64 64" role="img" aria-label="Zambia flag">
  <defs>
    <clipPath id="circle">
      <circle cx="32" cy="32" r="32"/>
    </clipPath>
  </defs>
  <g clip-path="url(#circle)">
    <rect width="64" height="64" fill="#198a00"/>
    <rect x="42" y="28" width="7.4" height="36" fill="#de2010"/>
    <rect x="49.4" y="28" width="7.4" height="36" fill="#000"/>
    <rect x="56.8" y="28" width="7.2" height="36" fill="#ef7d00"/>
    <path fill="#ef7d00" d="M45 10c3 3 8 3 11 0-1 5-5 8-11 9 3 2 7 2 11 1-5 5-12 5-17 0 4 1 8 1 11-1-6-1-10-4-11-9 2 3 5 4 6 0z"/>
  </g>
</svg>
